<?xml version="1.0" encoding="iso-8859-1"?>
<!-- Generator: Adobe Illustrator 19.0.0, SVG Export Plug-In . SVG Version: 6.00 Build 0)  -->
<svg version="1.1" id="Capa_1" xmlns="http://www.w3.org/2000/svg" xmlns:xlink="http://www.w3.org/1999/xlink" x="0px" y="0px"
	 viewBox="0 0 512 512" style="enable-background:new 0 0 512 512;" xml:space="preserve">
<g>
	<g>
		<path d="M480,255.051H32c-17.643,0-32,14.357-32,32c0,17.643,14.357,32,32,32h448c17.643,0,32-14.357,32-32
			C512,269.408,497.643,255.051,480,255.051z"/>
	</g>
</g>
<g>
	<g>
		<path d="M482.944,298.123c-5.781-1.621-11.584,1.664-13.184,7.339l-0.832,2.923H43.093l-0.853-2.923
			c-1.6-5.675-7.445-8.917-13.184-7.339c-5.675,1.621-8.939,7.531-7.317,13.184l29.397,102.912
			c9.109,31.893,38.635,54.165,71.787,54.165h266.133c33.173,0,62.677-22.272,71.787-54.165l29.397-102.912
			C491.883,305.653,488.597,299.744,482.944,298.123z M122.944,425.717c-14.208,0-26.88-9.536-30.763-23.211l-13.845-48.512
			c-1.621-5.675,1.664-11.563,7.317-13.184c5.717-1.621,11.584,1.685,13.184,7.339l13.845,48.512
			c1.323,4.544,5.525,7.744,10.261,7.744c5.888,0,10.667,4.779,10.667,10.667C133.611,420.96,128.832,425.717,122.944,425.717z"/>
	</g>
</g>
<g>
	<g>
		<path d="M143.424,448.16c-5.269-2.581-11.648-0.512-14.315,4.779l-21.333,42.667c-2.624,5.269-0.491,11.669,4.779,14.315
			c1.557,0.768,3.179,1.131,4.779,1.131c3.904,0,7.659-2.155,9.536-5.909l21.333-42.667
			C150.827,457.205,148.693,450.805,143.424,448.16z"/>
	</g>
</g>
<g>
	<g>
		<path d="M404.224,495.627l-21.333-42.667c-2.645-5.291-9.045-7.403-14.315-4.779c-5.269,2.645-7.403,9.045-4.779,14.315
			l21.333,42.667c1.877,3.733,5.632,5.888,9.536,5.888c1.6,0,3.221-0.363,4.779-1.109
			C404.715,507.296,406.848,500.896,404.224,495.627z"/>
	</g>
</g>
<g>
	<g>
		<path d="M428.48,0.949c-10.88,0-21.12,4.245-28.821,11.947l-33.856,33.856c-4.16,4.16-4.16,10.923,0,15.083
			c4.16,4.16,10.923,4.16,15.083,0L414.741,28c3.648-3.669,8.533-5.696,13.845-5.696c10.709,0,19.413,8.704,19.413,19.413v224
			c0,5.888,4.779,10.667,10.667,10.667s10.667-4.779,10.688-10.688v-224C469.355,19.232,451.093,0.949,428.48,0.949z"/>
	</g>
</g>
<g>
	<g>
		<path d="M391.552,57.419l-21.333-21.333c-2.432-2.432-5.824-3.563-9.28-2.987l-53.333,8.747c-3.925,0.64-7.147,3.413-8.405,7.168
			c-1.259,3.755-0.299,7.936,2.475,10.773l64,65.92c2.027,2.112,4.821,3.243,7.637,3.243c1.003,0,2.027-0.149,3.029-0.448
			c3.797-1.109,6.677-4.245,7.445-8.128l10.667-53.333C395.157,63.563,394.069,59.957,391.552,57.419z"/>
	</g>
</g>
<g>
	<g>
		<path d="M252.864,130.187c-4.16-4.16-10.923-4.16-15.083,0l-21.333,21.333c-4.16,4.16-4.16,10.923,0,15.083
			c2.091,2.069,4.821,3.115,7.552,3.115s5.461-1.045,7.531-3.115l21.333-21.333C257.024,141.109,257.024,134.347,252.864,130.187z"
			/>
	</g>
</g>
<g>
	<g>
		<path d="M295.531,172.853c-4.16-4.16-10.923-4.16-15.083,0l-21.333,21.333c-4.16,4.16-4.16,10.923,0,15.083
			c2.091,2.069,4.821,3.115,7.552,3.115c2.731,0,5.461-1.045,7.531-3.115l21.333-21.333
			C299.691,183.776,299.691,177.013,295.531,172.853z"/>
	</g>
</g>
<g>
	<g>
		<path d="M316.864,108.853c-4.16-4.16-10.923-4.16-15.083,0l-21.333,21.333c-4.16,4.16-4.16,10.923,0,15.083
			c2.091,2.069,4.821,3.115,7.552,3.115s5.461-1.045,7.531-3.115l21.333-21.333C321.024,119.776,321.024,113.013,316.864,108.853z"
			/>
	</g>
</g>
<g>
</g>
<g>
</g>
<g>
</g>
<g>
</g>
<g>
</g>
<g>
</g>
<g>
</g>
<g>
</g>
<g>
</g>
<g>
</g>
<g>
</g>
<g>
</g>
<g>
</g>
<g>
</g>
<g>
</g>
</svg>
