<?xml version="1.0" encoding="iso-8859-1"?>
<!-- Generator: Adobe Illustrator 19.0.0, SVG Export Plug-In . SVG Version: 6.00 Build 0)  -->
<svg version="1.1" id="Capa_1" xmlns="http://www.w3.org/2000/svg" xmlns:xlink="http://www.w3.org/1999/xlink" x="0px" y="0px"
	 viewBox="0 0 512 512" style="enable-background:new 0 0 512 512;" xml:space="preserve">
<g>
	<g>
		<g>
			<path d="M0.12,512h210.901V391.057H0.12V512z M46.246,422.376h119.648v29.986H46.246V422.376z"/>
			<path d="M0.12,361.071h210.901V242.127H0.12V361.071z M46.246,274.033h119.648v29.986H46.246V274.033z"/>
			<path d="M241.007,512H511.88V242.127H241.007V512z M420.923,274.033h29.986v30.726h-29.986V274.033z M360.951,274.033h29.986
				v30.726h-29.986V274.033z M300.979,274.033h29.986v30.726h-29.986V274.033z M300.979,331.585h149.93v120.444h-149.93V331.585z"/>
			<polygon points="420.923,69.131 420.923,0 330.965,0 330.965,69.181 241.007,129.152 241.007,182.155 511.88,182.155 
				511.88,129.102 			"/>
		</g>
	</g>
</g>
<g>
</g>
<g>
</g>
<g>
</g>
<g>
</g>
<g>
</g>
<g>
</g>
<g>
</g>
<g>
</g>
<g>
</g>
<g>
</g>
<g>
</g>
<g>
</g>
<g>
</g>
<g>
</g>
<g>
</g>
</svg>
