<svg id="Capa_1" enable-background="new 0 0 512.031 512.031" height="512" viewBox="0 0 512.031 512.031" width="512" xmlns="http://www.w3.org/2000/svg"><g><path d="m158.217 146.983c-7.693-7.694-20.818-4.881-24.651 5.339l-127.28 339.412c-4.509 12.023 7.266 23.831 19.312 19.312 17.047-6.393 325.733-122.15 339.411-127.279 10.173-3.814 13.073-16.919 5.34-24.651zm-4.742 37.685 61.641 61.641c4.265 51.261 23.255 100.54 54.22 141.294l-64.167 24.063c-47.996-49.926-72.49-119.728-65.966-188.939zm-40.442 261.549c-14.797-16.806-27.104-35.536-36.695-55.85l36.224-96.599c8.997 49.409 31.188 93.608 62.313 129.257zm-50.683-18.548c6.276 10.372 13.246 20.293 20.874 29.727l-37.261 13.973zm236.47-51.122c-22.496-27.37-38.643-59.564-47.307-93.841l81.15 81.15z"/><g><path d="m353.839 280.165c5.858 5.858 15.355 5.858 21.213 0 56.432-56.432 111.381-38.985 111.93-38.803 7.859 2.619 16.354-1.628 18.974-9.487 2.621-7.857-1.628-16.354-9.487-18.974-2.958-.985-73.232-23.347-142.629 46.051-5.859 5.857-5.86 15.356-.001 21.213z"/></g><path d="m237.166 163.492c5.857 5.858 15.355 5.859 21.213 0 69.397-69.397 47.036-139.671 46.051-142.629-2.62-7.859-11.116-12.108-18.974-9.487-7.859 2.62-12.106 11.115-9.487 18.974.183.549 17.629 55.498-38.803 111.93-5.858 5.857-5.858 15.355 0 21.212z"/><path d="m290.199 195.313c-5.858 5.858-5.858 15.355 0 21.213 5.804 5.805 15.235 5.881 21.124.089 7.749-3.861 31.801 10.621 45.168-2.741 13.223-13.224-.826-36.787 2.683-45.045 8.269-3.518 31.823 10.538 45.046-2.684 13.226-13.224-.824-36.787 2.685-45.046 8.281-3.519 31.822 10.539 45.045-2.684 13.226-13.224-.824-36.787 2.685-45.046 8.232-3.501 31.832 10.525 45.047-2.685 13.361-13.363-1.094-37.458 2.739-45.167 5.77-5.864 5.739-15.295-.089-21.124-5.857-5.858-15.355-5.858-21.213 0-11.823 11.823-9.51 28.514-7.283 40.447-11.933-2.227-28.623-4.54-40.446 7.282-11.823 11.823-9.51 28.514-7.283 40.447-11.933-2.226-28.625-4.541-40.447 7.283-11.823 11.823-9.509 28.514-7.282 40.447-11.935-2.227-28.625-4.541-40.447 7.282-11.823 11.823-9.51 28.514-7.283 40.447-11.934-2.225-28.628-4.538-40.449 7.285z"/><path d="m375.052 68.033c5.858-5.858 5.858-15.355 0-21.213s-15.355-5.858-21.213 0-5.858 15.355 0 21.213c5.857 5.858 15.355 5.858 21.213 0z"/><circle cx="470.511" cy="163.493" r="15"/><path d="m438.691 301.379c-5.858 5.858-5.858 15.355 0 21.213s15.355 5.858 21.213 0 5.858-15.355 0-21.213c-5.857-5.858-15.355-5.858-21.213 0z"/><path d="m226.559 89.246c5.858-5.858 5.858-15.355 0-21.213s-15.355-5.858-21.213 0c-5.858 5.857-5.858 15.355 0 21.213s15.356 5.858 21.213 0z"/></g></svg>