<svg id="Capa_1" enable-background="new 0 0 512 512" height="512" viewBox="0 0 512 512" width="512" xmlns="http://www.w3.org/2000/svg"><g><path d="m422 286c0 8.284 6.716 15 15 15s15-6.716 15-15c0-67.5-35.064-93.798-66-117-28.976-21.732-54-40.5-54-93 0-8.284-6.716-15-15-15s-15 6.716-15 15c0 67.5 35.064 93.798 66 117 28.976 21.732 54 40.5 54 93z"/><path d="m452 76c0-8.284-6.716-15-15-15s-15 6.716-15 15c0 64.542 17.276 90.457 32.519 113.32 14.132 21.199 27.481 41.222 27.481 96.68 0 8.284 6.716 15 15 15s15-6.716 15-15c0-64.542-17.276-90.457-32.519-113.32-14.132-21.199-27.481-41.222-27.481-96.68z"/><path d="m497 331h-482c-8.284 0-15 6.716-15 15v90c0 8.284 6.716 15 15 15h482c8.284 0 15-6.716 15-15v-90c0-8.284-6.716-15-15-15zm-75 30v60h-211v-60zm-392 0h151v60h-151zm452 60h-30v-60h30z"/></g></svg>